<svg xmlns="http://www.w3.org/2000/svg" viewBox="0 0 47.65 47.65"><defs><style>.cls-1{fill:#fff;}</style></defs><title>behance_logo</title><g id="Layer_2" data-name="Layer 2"><g id="BEHANCE_LOGO" data-name="BEHANCE LOGO"><path class="cls-1" d="M18.14,25c-1.62-.08-3.25-.08-4.9-.12v4.94c1.54,0,3.07,0,4.59,0a2.33,2.33,0,0,0,1.7-.66,2.69,2.69,0,0,0,.54-2.81A2,2,0,0,0,18.14,25Z"/><path class="cls-1" d="M17.12,21.86a5.35,5.35,0,0,0,1.46-.24,2,2,0,0,0,.85-3.13,1.48,1.48,0,0,0-.74-.46,10.92,10.92,0,0,0-1.88-.24c-1.07,0-2.14,0-3.22,0h-.38v4.07l.21,0C14.66,21.87,15.89,21.89,17.12,21.86Z"/><path class="cls-1" d="M31.86,21.76a2.8,2.8,0,0,0-2.67,2.8h5.89A2.82,2.82,0,0,0,31.86,21.76Z"/><path class="cls-1" d="M23.82,0A23.82,23.82,0,1,0,47.65,23.82,23.82,23.82,0,0,0,23.82,0Zm4.57,15.34H35.8v1.82H28.39ZM21.53,32.21a6,6,0,0,1-3,.81c-1.79.06-3.58.05-5.36.07H8.93V14.54c2.91,0,5.82,0,8.72,0a10.54,10.54,0,0,1,2.36.27,4.61,4.61,0,0,1,3.22,6.26,3.56,3.56,0,0,1-1.6,1.84l-.32.19c.34.19.67.34,1,.53a4.16,4.16,0,0,1,1.79,3A5.54,5.54,0,0,1,21.53,32.21Zm17.19-5.34H29.1a3,3,0,0,0,2.71,3.26,3.66,3.66,0,0,0,2-.27,2.68,2.68,0,0,0,1.09-1,.5.5,0,0,1,.34-.22c1,0,2.1,0,3.15,0l.23,0A9.59,9.59,0,0,1,38,30a5.64,5.64,0,0,1-3.27,2.62,7.77,7.77,0,0,1-5.89-.39,5.43,5.43,0,0,1-3.15-4.11,9.77,9.77,0,0,1,.3-5.19A5.81,5.81,0,0,1,31,19a7.41,7.41,0,0,1,3.88.41,5.87,5.87,0,0,1,3.64,4.73c.06.34.09.68.14,1Z"/></g></g></svg>