<svg xmlns="http://www.w3.org/2000/svg" viewBox="0 0 47.65 47.65"><defs><style>.cls-1{fill:#fff;}</style></defs><title>instagram_logo</title><g id="Layer_2" data-name="Layer 2"><g id="INSTAGRAM_LOGO" data-name="INSTAGRAM LOGO"><path class="cls-1" d="M23.83,19.28a4.92,4.92,0,1,0,4.91,4.94A4.92,4.92,0,0,0,23.83,19.28Z"/><path class="cls-1" d="M31.82,12.47a8.14,8.14,0,0,0-1.9-.27q-5.33-.07-10.66-.07a17.76,17.76,0,0,0-2.94.23,4.9,4.9,0,0,0-4.23,3.85,9,9,0,0,0-.27,1.9c-.07,2-.09,4-.13,6.06h0c0,.75,0,1.5,0,2.24.07,1.75,0,3.52.27,5.26a4.78,4.78,0,0,0,3.82,4.24,8.56,8.56,0,0,0,2,.27q5.19.07,10.38.07A19.66,19.66,0,0,0,31.28,36a4.89,4.89,0,0,0,4.27-3.86,8.58,8.58,0,0,0,.27-2q.07-5.17.07-10.34a19.67,19.67,0,0,0-.23-3.13A4.88,4.88,0,0,0,31.82,12.47Zm-8,19.31a7.59,7.59,0,1,1,7.58-7.6A7.6,7.6,0,0,1,23.83,31.78Zm7.88-13.69a1.77,1.77,0,1,1,1.76-1.78A1.78,1.78,0,0,1,31.71,18.09Z"/><path class="cls-1" d="M23.82,0A23.82,23.82,0,1,0,47.65,23.82,23.82,23.82,0,0,0,23.82,0ZM38.58,29.12c-.05.69-.09,1.38-.16,2.07A8.52,8.52,0,0,1,36.55,36a8.17,8.17,0,0,1-5.7,2.79c-.7.07-1.4.11-2.11.16H18.9c-.69-.05-1.38-.09-2.07-.16a8.66,8.66,0,0,1-4.39-1.54,8,8,0,0,1-3.22-6c-.07-.7-.11-1.4-.16-2.11V19.28c.05-.7.09-1.41.16-2.11a8.64,8.64,0,0,1,1.56-4.38,8.05,8.05,0,0,1,6-3.19c.7-.07,1.41-.11,2.11-.16h9.84c.7.05,1.41.09,2.11.16a8.51,8.51,0,0,1,4.75,1.85,8.17,8.17,0,0,1,2.82,5.76c.07.69.11,1.38.16,2.07Z"/></g></g></svg>