<svg xmlns="http://www.w3.org/2000/svg" viewBox="0 0 47.65 47.65"><defs><style>.cls-1{fill:#fff;}</style></defs><title>twitter_logo</title><g id="Layer_2" data-name="Layer 2"><g id="TWITTER_LOGO" data-name="TWITTER LOGO"><path class="cls-1" d="M23.82,0A23.82,23.82,0,1,0,47.65,23.82,23.82,23.82,0,0,0,23.82,0ZM36.51,17.82a1.57,1.57,0,0,0-.62,1.3A16.12,16.12,0,0,1,11.55,33l-.26-.17s0,0-.1-.16a11.81,11.81,0,0,0,8-2.18c-2.52-.39-4.26-1.28-5.12-4h2c-2.51-1.34-3.89-3-4.06-5.78.76.22,1.44.38,2.13.58a6.19,6.19,0,0,1-1.27-7.63,16,16,0,0,0,7.72,5.23c1.22.38,2.5.54,3.88.84a18.49,18.49,0,0,1,0-2.16A5.3,5.3,0,0,1,28,13.09a5.41,5.41,0,0,1,5.75.88,1.23,1.23,0,0,0,1.38.29l2.7-1.06.19.14-2,2.81,2.58-.73.13.12C38,16.3,37.29,17.11,36.51,17.82Z"/></g></g></svg>