<svg xmlns="http://www.w3.org/2000/svg" viewBox="0 0 145.26 145.26"><defs><style>.cls-1,.cls-2{fill:none;stroke-linecap:round;stroke-linejoin:round;stroke-width:2px;}.cls-1{stroke:#fff;}.cls-2{stroke:#4ab8b7;}</style></defs><title>ico2_1</title><g id="Layer_2" data-name="Layer 2"><g id="icon_01"><path class="cls-1" d="M103.33,62.4V11.23h10.23V1H31.7V11.23H41.93V62.4S1,103.33,1,123.79s20.47,20.47,20.47,20.47H123.79s20.47,0,20.47-20.47S103.33,62.4,103.33,62.4Z"/><path class="cls-2" d="M70.49,127.41s20.89-16.73-.65-36.67"/><polyline class="cls-2" points="70.22 98.85 69.54 90.14 78.27 90.96"/><line class="cls-2" x1="40.29" y1="99.74" x2="50.46" y2="109.91"/><line class="cls-2" x1="40.29" y1="109.91" x2="50.46" y2="99.74"/><line class="cls-2" x1="89.7" y1="79.58" x2="99.86" y2="89.74"/><line class="cls-2" x1="89.7" y1="89.74" x2="99.86" y2="79.58"/><line class="cls-2" x1="94.74" y1="115.87" x2="104.91" y2="126.04"/><line class="cls-2" x1="94.74" y1="126.04" x2="104.91" y2="115.87"/><circle class="cls-2" cx="57.87" cy="79.88" r="4.71" transform="translate(-30.04 35.14) rotate(-27.1)"/><line class="cls-1" x1="41.76" y1="43.14" x2="103.33" y2="43.14"/></g></g></svg>