<svg xmlns="http://www.w3.org/2000/svg" viewBox="0 0 141.2 137"><defs><style>.cls-1,.cls-2{fill:none;stroke-linecap:round;stroke-linejoin:round;stroke-width:2px;}.cls-1{stroke:#4ab8b7;}.cls-2{stroke:#fff;}</style></defs><title>ico1_3</title><g id="Layer_2" data-name="Layer 2"><g id="icon_03"><path class="cls-1" d="M68.11,87.12s22.52-18-.7-39.54"/><polyline class="cls-1" points="67.82 56.33 67.08 46.94 76.49 47.82"/><line class="cls-1" x1="35.55" y1="57.29" x2="46.51" y2="68.25"/><line class="cls-1" x1="35.55" y1="68.25" x2="46.51" y2="57.29"/><line class="cls-1" x1="88.82" y1="35.55" x2="99.78" y2="46.51"/><line class="cls-1" x1="88.82" y1="46.51" x2="99.78" y2="35.55"/><line class="cls-1" x1="94.25" y1="74.68" x2="105.21" y2="85.64"/><line class="cls-1" x1="94.25" y1="85.64" x2="105.21" y2="74.68"/><circle class="cls-1" cx="54.5" cy="35.87" r="5.07" transform="translate(-10.36 28.77) rotate(-27.1)"/><line class="cls-2" x1="1" y1="10.61" x2="140.2" y2="10.61"/><line class="cls-2" x1="1" y1="106.25" x2="140.2" y2="106.25"/><line class="cls-2" x1="11.63" y1="10.61" x2="11.63" y2="106.25"/><line class="cls-2" x1="128.51" y1="10.61" x2="128.51" y2="106.25"/><line class="cls-2" x1="71.13" y1="10.61" x2="71.13" y2="1"/><line class="cls-2" x1="30.4" y1="106.25" x2="16.94" y2="136"/><line class="cls-2" x1="112.57" y1="106.25" x2="126.03" y2="136"/></g></g></svg>