<svg xmlns="http://www.w3.org/2000/svg" viewBox="0 0 30.55 16"><defs><style>.cls-1{fill:#fff;}</style></defs><title>header_contact_icon</title><g id="Layer_2" data-name="Layer 2"><g id="CONTACT_HEADER_ICON" data-name="CONTACT HEADER ICON"><path class="cls-1" d="M30.53,15.35a.68.68,0,0,0,0-.08V.73s0,0,0,0a.7.7,0,0,0,0-.15.7.7,0,0,0,0-.13s0,0,0,0L30.38.29l-.1-.11L30.17.1,30.05,0,29.9,0l-.08,0H.73L.65,0,.49,0,.38.1.26.18.16.29.1.35s0,0,0,0A.72.72,0,0,0,0,.53.7.7,0,0,0,0,.68s0,0,0,0V15.27a.68.68,0,0,0,0,.08.7.7,0,0,0,0,.14.69.69,0,0,0,.06.14.64.64,0,0,0,0,.07l0,0a.71.71,0,0,0,.18.15l.07,0a.72.72,0,0,0,.3.07H29.82a.72.72,0,0,0,.3-.07l.07,0a.71.71,0,0,0,.18-.15l0,0a.64.64,0,0,0,0-.07.69.69,0,0,0,.06-.14A.7.7,0,0,0,30.53,15.35ZM1.45,2l8.87,5.32-8.87,6.5Zm17.1,4.63,0,0L15.27,8.61,12,6.65h0L3.35,1.45H27.19ZM11.68,8.15l3.22,1.93a.73.73,0,0,0,.75,0l3.22-1.93,8.73,6.4H2.95Zm8.54-.81L29.09,2V13.84Z"/></g></g></svg>