<svg xmlns="http://www.w3.org/2000/svg" viewBox="0 0 122.57 133.1"><defs><style>.cls-1,.cls-2{fill:none;stroke-linecap:round;stroke-linejoin:round;stroke-width:2px;}.cls-1{stroke:#fff;}.cls-2{stroke:#4ab8b7;}</style></defs><title>ico3_3</title><g id="Layer_2" data-name="Layer 2"><g id="icon_03"><path class="cls-1" d="M121.13,55.51c2.42-18.06-5-39.7-27-49.41C76.81-1.58,46.17-1.57,30,13,15.92,25.62,12.74,43.6,12.74,43.6a73.31,73.31,0,0,0-1.45,8.9c0,2.12.67,4.7.4,5.79A29.8,29.8,0,0,1,8.37,65.9C6.3,69.3,1,78.62,1,80.66s1.24,2.8,3.73,3.62,4.42,1.49,4.84,2.45c3.81,8.77,1.18,20,1.39,22.53.49,5.75,6,8.32,14.78,6.94,8.35-1.32,12.28-2.55,13.35,2,.68,2.86.46,13.81.46,13.81.05.22,59,0,59,0s.29-16.54.29-22.77,1.71-16.23,5.71-21C110.83,81.44,119.19,70,121.13,55.51Z"/><path class="cls-2" d="M68.32,21.72c-20,0-36.22,24.15-36.22,24.15S48.32,70,68.32,70s36.22-24.15,36.22-24.15S88.33,21.72,68.32,21.72Zm0,38.36A14.22,14.22,0,1,1,82.54,45.87,14.22,14.22,0,0,1,68.32,60.09Zm0-9a5.22,5.22,0,1,1,5.22-5.22A5.22,5.22,0,0,1,68.32,51.09Z"/></g></g></svg>