<svg xmlns="http://www.w3.org/2000/svg" viewBox="0 0 122.57 133.1"><defs><style>.cls-1,.cls-2{fill:none;}.cls-1{stroke:#fff;}.cls-1,.cls-2,.cls-3{stroke-linecap:round;stroke-linejoin:round;stroke-width:2px;}.cls-2,.cls-3{stroke:#4ab8b7;}.cls-3{fill:#282828;}</style></defs><title>ico3_!</title><g id="Layer_2" data-name="Layer 2"><g id="icon_01"><path class="cls-1" d="M1.44,55.51c-2.42-18.06,5-39.7,27-49.41C45.76-1.58,76.4-1.57,92.56,13c14.09,12.67,17.27,30.64,17.27,30.64a73.31,73.31,0,0,1,1.45,8.9c0,2.12-.67,4.7-.4,5.79a29.8,29.8,0,0,0,3.31,7.61c2.07,3.41,7.37,12.72,7.37,14.76s-1.24,2.8-3.73,3.62-4.42,1.49-4.84,2.45c-3.81,8.77-1.18,20-1.39,22.53-.49,5.75-6,8.32-14.78,6.94-8.35-1.32-12.28-2.55-13.35,2C82.81,121,83,132,83,132c-.05.22-59,0-59,0s-.29-16.54-.29-22.77S22,93,18,88.27C11.74,81.44,3.38,70,1.44,55.51Z"/><path class="cls-2" d="M25.43,65.3A30.35,30.35,0,0,1,59.66,21"/><path class="cls-2" d="M80.87,41.66A30.33,30.33,0,0,1,30.55,71.94"/><path class="cls-2" d="M62.36,66a18.91,18.91,0,1,1,5.18-5.22"/><path class="cls-2" d="M51.79,43.21a7.07,7.07,0,1,1-7.07,7.07A7.07,7.07,0,0,1,51.79,43.21Z"/><path class="cls-3" d="M66.53,35.39V25.91l8.53-8.53v9.48Zm8.53-8.53h9.48L76,35.39H66.53Z"/><line class="cls-2" x1="51.68" y1="50.25" x2="80.08" y2="22.13"/></g></g></svg>