<svg xmlns="http://www.w3.org/2000/svg" viewBox="0 0 166.64 145"><defs><style>.cls-1,.cls-2{fill:none;stroke-linecap:round;stroke-linejoin:round;stroke-width:2px;}.cls-1{stroke:#282828;}.cls-2{stroke:#4ab8b7;}</style></defs><title>section_03_icon</title><g id="Layer_2" data-name="Layer 2"><g id="SECTION_03_ICON" data-name="SECTION 03 ICON"><polyline class="cls-1" points="95.3 144 95.3 125.45 145.55 125.45 145.55 144"/><path class="cls-1" d="M101.74,125.45V112.31s-1-8.5,4.38-13.91l24-24s7-7,13.14-.77c5.81,5.81,0,11.59-.77,12.37s-11.59,10.82-11.59,10.82"/><path class="cls-1" d="M150.18,71.34V39.65c0-3.86.77-10.82,7.73-10.82s7.73,4.64,7.73,10V85.25c0,2.32-.39,8.12-7.73,15.46L143.23,115.4c-2.32,2.32-3.86,3.86-3.86,10"/><polyline class="cls-1" points="71.34 144 71.34 125.45 21.1 125.45 21.1 144"/><path class="cls-1" d="M64.9,125.45V112.31s1-8.5-4.38-13.91l-24-24s-7-7-13.14-.77c-5.81,5.81,0,11.59.77,12.37S35.78,96.85,35.78,96.85"/><path class="cls-1" d="M16.46,71.34V39.65c0-3.86-.77-10.82-7.73-10.82S1,33.46,1,38.88V85.25c0,2.32.39,8.12,7.73,15.46L23.42,115.4c2.32,2.32,3.86,3.86,3.86,10"/><path class="cls-2" d="M119.93,8.66a26.16,26.16,0,0,0-37,0,26.16,26.16,0,1,0-37,37h0l18.5,18.5,18.5,18.5,18.5-18.5,18.5-18.5h0A26.16,26.16,0,0,0,119.93,8.66Z"/><circle class="cls-1" cx="60.29" cy="139.5" r="3.86"/><circle class="cls-1" cx="106.35" cy="138.72" r="3.86"/><path class="cls-1" d="M70.82,35.13a12,12,0,1,1,12,12v6"/><line class="cls-1" x1="82.82" y1="59.13" x2="82.82" y2="59.88"/></g></g></svg>