<svg xmlns="http://www.w3.org/2000/svg" viewBox="0 0 47.65 47.65"><defs><style>.cls-1{fill:#fff;}</style></defs><title>linkedin_logo</title><g id="Layer_2" data-name="Layer 2"><g id="LINKED_IN_LOGO" data-name="LINKED IN LOGO"><path class="cls-1" d="M23.82,0A23.82,23.82,0,1,0,47.65,23.82,23.82,23.82,0,0,0,23.82,0ZM17.37,35.74c-1.59,0-3.13,0-4.73,0-.25,0-.22-.07-.21-.32,0-5.15.21-10.31.21-15.46v-.82h5s0,.48,0,.58c0,5.15,0,10.56,0,15.7C17.66,35.66,17.62,35.74,17.37,35.74Zm-.5-18.87a3.33,3.33,0,0,1-4.42-.56,2.87,2.87,0,0,1-.52-1.59,2.76,2.76,0,0,1,2.47-2.76,3.38,3.38,0,0,1,2.51.56A2.74,2.74,0,0,1,16.87,16.87ZM36.69,35.74q-2.36,0-4.72,0c-.27,0-.35-.06-.35-.34q0-4.07,0-8.13a6,6,0,0,0-.28-2,2.39,2.39,0,0,0-2.65-1.71A2.89,2.89,0,0,0,26,26.34c0,2.75,0,5.5,0,8.24,0,.32,0,.63,0,.94,0,.14,0,.2-.2.2h-5.1s-.1,0-.1,0v-16h5.1c.24,0,.31.06.31.3,0,.61,0,1.23,0,1.92.1-.11.15-.16.19-.22A5.32,5.32,0,0,1,31,19.29a6.26,6.26,0,0,1,3.1.81,5.65,5.65,0,0,1,2.47,3.18,10.22,10.22,0,0,1,.5,3.3c0,2.95,0,5.89,0,8.84C37,35.68,36.94,35.74,36.69,35.74Z"/></g></g></svg>