<svg xmlns="http://www.w3.org/2000/svg" viewBox="0 0 47.65 47.65"><defs><style>.cls-1{fill:#fff;}</style></defs><title>pinterest_logo</title><g id="Layer_2" data-name="Layer 2"><g id="PINTEREST_LOGO" data-name="PINTEREST LOGO"><path class="cls-1" d="M23.82,0A23.81,23.81,0,0,0,13.64,45.33c.13-.78.38-2.06.89-4.2s1-4.29,1.51-6.43l1.71-7.25a.33.33,0,0,0,0-.19A9.65,9.65,0,0,1,17,24.19a8.74,8.74,0,0,1,.36-3.35,6,6,0,0,1,1.75-2.79,3.88,3.88,0,0,1,3.34-1,2.89,2.89,0,0,1,2.15,1.58,4.38,4.38,0,0,1,.47,2.12,8,8,0,0,1-.29,2.06c-.39,1.42-.81,2.82-1.22,4.24-.25.88-.5,1.75-.71,2.63A3.41,3.41,0,0,0,23,31.79a3.74,3.74,0,0,0,3.14,2.42,5.13,5.13,0,0,0,3.69-.91,8.38,8.38,0,0,0,2.52-2.79,14.78,14.78,0,0,0,1.68-4.31c.16-.72.29-1.44.39-2.17.08-.57.11-1.13.15-1.7a14.17,14.17,0,0,0-.05-2.61,9.66,9.66,0,0,0-.8-2.84,8.26,8.26,0,0,0-3.13-3.58,10.68,10.68,0,0,0-4.8-1.56,14.36,14.36,0,0,0-3,0,12.75,12.75,0,0,0-2.79.61,11.46,11.46,0,0,0-3.9,2.25A11.14,11.14,0,0,0,14.08,17a11.84,11.84,0,0,0-1.83,5.46A10.12,10.12,0,0,0,12.32,25a6.66,6.66,0,0,0,1.12,2.83c.2.28.43.55.63.83a.84.84,0,0,1,.18.66c-.05.28-.12.55-.18.83-.13.52-.25,1-.4,1.57a.8.8,0,0,1-.73.68,1.31,1.31,0,0,1-.56-.1A6.84,6.84,0,0,1,10,30.68,8.88,8.88,0,0,1,8,27a14.1,14.1,0,0,1-.56-4.75,13.47,13.47,0,0,1,.49-3,15.15,15.15,0,0,1,1.89-4.19A15.77,15.77,0,0,1,13,11.45a17,17,0,0,1,6.3-3.25,21,21,0,0,1,4.76-.73,18.93,18.93,0,0,1,5.12.45A15.8,15.8,0,0,1,33.8,9.79a14.57,14.57,0,0,1,4,3.54A13.82,13.82,0,0,1,40,17.41a12.2,12.2,0,0,1,.64,3.18c0,.6,0,1.22,0,1.83a21.08,21.08,0,0,1-.43,3.86,19,19,0,0,1-1.63,4.85,14.11,14.11,0,0,1-4.12,5.06,11.59,11.59,0,0,1-3.24,1.72,11.84,11.84,0,0,1-2.84.58,9.29,9.29,0,0,1-2.23,0,8,8,0,0,1-2.65-.91A5.69,5.69,0,0,1,22,36.38c-.25-.27-.46-.57-.69-.85v0c-.5,2-1,3.91-1.49,5.85a20.63,20.63,0,0,1-2.23,5.38A23.81,23.81,0,1,0,23.82,0Z"/></g></g></svg>