<svg xmlns="http://www.w3.org/2000/svg" viewBox="0 0 47.65 47.65"><path id="VIMEO_LOGO" d="M23.89 0a23.82 23.82 0 1 0 23.76 23.89A23.82 23.82 0 0 0 23.89 0zm11.89 22a41.68 41.68 0 0 1-5 7.51 30 30 0 0 1-4.9 5.1 9 9 0 0 1-3.9 2 3.13 3.13 0 0 1-3.17-1.15 10.41 10.41 0 0 1-2-4c-.85-3.08-1.68-6.16-2.55-9.23a13.48 13.48 0 0 0-.82-2 3.41 3.41 0 0 0-.52-.77 1.06 1.06 0 0 0-1.64-.27c-.54.32-1.06.68-1.62 1L8.33 18.5c.65-.57 1.28-1.14 1.92-1.69 1.35-1.15 2.7-2.32 4.08-3.44a5.21 5.21 0 0 1 2.19-1.11 3 3 0 0 1 3.27 1.33 7.74 7.74 0 0 1 1.1 3.15 78.9 78.9 0 0 0 1.53 8.12A16.07 16.07 0 0 0 23 26.6a3 3 0 0 0 .46.75.78.78 0 0 0 1.22.17 3.14 3.14 0 0 0 .62-.52 17.12 17.12 0 0 0 3.28-5.47 5 5 0 0 0 .2-1.9 1.45 1.45 0 0 0-1.56-1.44 15.41 15.41 0 0 0-2 .26 3.44 3.44 0 0 0-.43.14 9.94 9.94 0 0 1 3.47-5.37 7.13 7.13 0 0 1 5.94-1.1 3.65 3.65 0 0 1 2.76 3.24A10.46 10.46 0 0 1 35.78 22z" data-name="VIMEO LOGO"/></svg>