<?xml version="1.0" encoding="utf-8"?>
<!-- Generator: Adobe Illustrator 21.0.2, SVG Export Plug-In . SVG Version: 6.00 Build 0)  -->
<svg version="1.1" id="Layer_1" xmlns="http://www.w3.org/2000/svg" xmlns:xlink="http://www.w3.org/1999/xlink" x="0px" y="0px"
	 viewBox="0 0 135.2 30" style="enable-background:new 0 0 135.2 30;" xml:space="preserve">
<style type="text/css">
	.st0{fill:#FFFFFF;}
</style>
<g>
	<polygon class="st0" points="12.2,18.6 8,4.5 4.5,4.5 4.5,25.4 7.6,25.4 7.6,12 12,25.4 15.4,25.4 15.4,4.5 12.2,4.5 	"/>
	<path class="st0" d="M25.4,20.7c0,0.5-0.2,0.9-0.5,1.3c-0.4,0.4-0.8,0.5-1.3,0.5c-0.5,0-0.9-0.2-1.3-0.5c-0.4-0.4-0.5-0.8-0.5-1.3
		V4.5h-3.1v16.2c0,1.4,0.5,2.6,1.5,3.5c1,1,2.2,1.5,3.5,1.5c1.4,0,2.6-0.5,3.5-1.4c1-1,1.5-2.1,1.5-3.5V4.5h-3.3V20.7z"/>
	<path class="st0" d="M37.1,4.3c-1.4,0-2.6,0.5-3.5,1.5c-1,1-1.5,2.2-1.5,3.6v11.4c0,1.4,0.5,2.6,1.5,3.5c1,1,2.2,1.5,3.6,1.5
		c1.4,0,2.5-0.5,3.5-1.5c1-1,1.5-2.2,1.5-3.5v-2.9h-3.3v2.9c0,0.5-0.2,0.9-0.5,1.3c-0.4,0.4-0.8,0.5-1.3,0.5c-0.5,0-0.9-0.2-1.3-0.5
		c-0.4-0.4-0.5-0.8-0.5-1.3V9.2c0-0.5,0.2-0.9,0.5-1.3c0.4-0.4,0.8-0.5,1.3-0.5c0.5,0,0.9,0.2,1.3,0.5c0.4,0.4,0.5,0.8,0.5,1.3v2.5
		h3.3V9.3c0-1.4-0.5-2.6-1.5-3.5C39.7,4.8,38.5,4.3,37.1,4.3z"/>
	<path class="st0" d="M49.3,4.3c-1.4,0-2.6,0.5-3.5,1.5c-1,1-1.5,2.2-1.5,3.6v11.4c0,1.4,0.5,2.6,1.5,3.5c1,1,2.2,1.5,3.6,1.5
		c1.4,0,2.5-0.5,3.5-1.5c1-1,1.5-2.2,1.5-3.5v-2.9H51v2.9c0,0.5-0.2,0.9-0.5,1.3c-0.4,0.4-0.8,0.5-1.3,0.5c-0.5,0-0.9-0.2-1.3-0.5
		c-0.4-0.4-0.5-0.8-0.5-1.3V9.2c0-0.5,0.2-0.9,0.5-1.3c0.4-0.4,0.8-0.5,1.3-0.5c0.5,0,0.9,0.2,1.3,0.5C50.9,8.3,51,8.7,51,9.2v2.5
		h3.3V9.3c0-1.4-0.5-2.6-1.5-3.5C51.9,4.8,50.7,4.3,49.3,4.3z"/>
	<path class="st0" d="M62.2,4.2c-1.4,0-2.5,0.5-3.5,1.5c-1,1-1.5,2.2-1.5,3.6v11.4c0,1.4,0.5,2.6,1.5,3.5c1,1,2.2,1.5,3.5,1.5
		c1.4,0,2.6-0.5,3.5-1.5c1-1,1.5-2.2,1.5-3.6V9.2c0-1.4-0.5-2.6-1.5-3.5S63.6,4.2,62.2,4.2z M64,20.6c0,0.5-0.2,0.9-0.5,1.3
		c-0.4,0.4-0.8,0.5-1.3,0.5c-0.5,0-0.9-0.2-1.3-0.5c-0.4-0.4-0.5-0.8-0.5-1.3V9.2c0-0.5,0.2-0.9,0.5-1.3c0.4-0.4,0.8-0.5,1.3-0.5
		c0.5,0,0.9,0.2,1.3,0.5C63.8,8.3,64,8.7,64,9.2V20.6z"/>
	<path class="st0" d="M84.7,16.1c-0.5-0.8-1.1-1.3-1.8-1.6c0.4-0.2,0.8-0.5,1.1-0.8c0.7-0.8,1.1-2,1.1-3.4c0-0.9-0.1-1.6-0.3-2.2
		c-0.4-1.2-1-2-1.8-2.6c-1-0.7-2.1-1-3.4-1h-4.7v21h5.9c0.8,0,1.6-0.2,2.4-0.7c0.7-0.4,1.3-1,1.7-1.7c0.5-0.9,0.8-2.1,0.8-3.4
		c0-0.5,0-1-0.1-1.5C85.3,17.3,85.1,16.6,84.7,16.1z M78.3,7.7h1.3c0.6,0,1.1,0.2,1.5,0.6c0.4,0.4,0.6,1.1,0.6,2
		c0,0.5-0.1,1-0.2,1.3c-0.3,1-1,1.4-2,1.4h-1.3V7.7z M81.9,20.7c-0.4,1.1-1.2,1.7-2.2,1.7h-1.3v-6.3h1.3c0.8,0,1.4,0.2,1.8,0.7
		c0.4,0.5,0.7,1.4,0.7,2.6C82.1,19.9,82,20.3,81.9,20.7z"/>
	<path class="st0" d="M98,12.6v-3C98,8,97.7,6.8,97,6c-0.8-1-2.1-1.5-3.9-1.5h-5v20.9h3.2v-7.9h1.8c0.1,0,0.2,0,0.3,0l1.9,7.9h3.4
		l-2.3-9.1C97.5,15.3,98,14,98,12.6z M95,12.6c0,0.5-0.2,0.9-0.5,1.3c-0.4,0.4-0.8,0.5-1.3,0.5h-1.9V7.8h1.9c1.2,0,1.8,0.6,1.8,1.8
		V12.6z"/>
	<path class="st0" d="M104.4,4.5l-3.6,20.9h3.3l0.8-4.8h3.3l0.7,4.8h3.3l-3.5-20.9H104.4z M105.4,17.6l1.2-8.3l1.2,8.3H105.4z"/>
	<rect x="114.5" y="10" class="st0" width="3.2" height="15.5"/>
	<polygon class="st0" points="128.5,4.5 128.5,18.6 124.3,4.5 120.7,4.5 120.7,25.5 123.9,25.5 123.9,12 128.2,25.5 131.6,25.5 
		131.6,4.5 	"/>
	<rect x="114.5" y="4.5" class="st0" width="3.2" height="3.3"/>
</g>
</svg>
