<svg xmlns="http://www.w3.org/2000/svg" viewBox="0 0 117.99 144.16"><defs><style>.cls-1,.cls-2{fill:none;stroke-linecap:round;stroke-linejoin:round;stroke-width:2px;}.cls-1{stroke:#fff;}.cls-2{stroke:#4ab8b7;}</style></defs><title>ico2_2</title><g id="Layer_2" data-name="Layer 2"><g id="icon_02"><path class="cls-1" d="M92.39,66.67V11.15A10.16,10.16,0,0,0,82.24,1H11.15A10.16,10.16,0,0,0,1,11.15V133a10.15,10.15,0,0,0,10.15,10.15H82.24A10.16,10.16,0,0,0,92.39,133V85.45M54.31,6.08a2.54,2.54,0,1,1-2.54,2.54A2.54,2.54,0,0,1,54.31,6.08Zm-15.23,0h5.08a2.54,2.54,0,0,1,0,5.08H39.08a2.54,2.54,0,0,1,0-5.08Zm7.62,132A5.08,5.08,0,1,1,51.77,133,5.08,5.08,0,0,1,46.7,138.09ZM82.24,95.93v26.93H11.15V16.23H82.24V77.08"/><polygon class="cls-2" points="32.91 51.34 32.91 89.53 64.47 70.44 32.91 51.34"/><g id="pencil"><path class="cls-2" d="M103.18,56.56l1.11,1.11L111,64.36l1.12,1.11,1.11-1.11,2.23-2.22L116.53,61a1.58,1.58,0,0,0,0-2.23l-6.67-6.67a1.58,1.58,0,0,0-2.23,0l-1.12,1.11-2.22,2.23Z"/><polygon class="cls-2" points="99.41 60.34 71.39 88.36 65.42 103.06 80.29 97.26 108.31 69.24 99.41 60.34"/></g></g></g></svg>