<svg xmlns="http://www.w3.org/2000/svg" viewBox="0 0 155.98 132.55"><defs><style>.cls-1,.cls-2{fill:none;stroke-linecap:round;stroke-linejoin:round;stroke-width:2px;}.cls-1{stroke:#4ab8b7;}.cls-2{stroke:#fff;}</style></defs><title>change_management_icon</title><g id="Layer_2" data-name="Layer 2"><g id="CM_ICON" data-name="CM ICON"><path class="cls-1" d="M86.33,62.58V67l2.73,1.2,3.16,1.38L95.5,71l3.16,1.33,2.69,1.1c.8.33,1.44.57,1.94.74a5.85,5.85,0,0,1,2.54,1.71,10.44,10.44,0,0,1,1.53,2.33,11.88,11.88,0,0,1,1,2.92v4.75H50.22V81.09a13,13,0,0,1,1-2.92,10.29,10.29,0,0,1,1.53-2.33,5.86,5.86,0,0,1,2.5-1.71c.52-.17,1.21-.43,2.06-.77l2.84-1.16,3.31-1.4,3.45-1.49,3.25-1.42,2.69-1.2V62.44c0-.2-.13-.5-.24-.92s-.23-.83-.36-1.25-.32-1-.52-1.61A19.67,19.67,0,0,1,70,54.08a22.48,22.48,0,0,1-.64-5.44,22,22,0,0,1,.8-6.39A12,12,0,0,1,72.38,38a8.2,8.2,0,0,1,3.23-2.39,10.46,10.46,0,0,1,4-.75,10.62,10.62,0,0,1,3.94.73,8.29,8.29,0,0,1,3.25,2.35A11.69,11.69,0,0,1,89,42.2a22.29,22.29,0,0,1,.8,6.45A22.39,22.39,0,0,1,89.18,54a19.3,19.3,0,0,1-1.7,4.55l-.56,1.75q-.23.72-.41,1.36A4,4,0,0,0,86.33,62.58Z"/><path class="cls-1" d="M53.43,74.62H36.95V71.51a8.55,8.55,0,0,1,.66-1.92,6.76,6.76,0,0,1,1-1.53,3.85,3.85,0,0,1,1.64-1.12c.34-.11.79-.28,1.35-.5l1.87-.76,2.17-.92,2.27-1,2.14-.93,1.77-.79v-2.8c0-.13-.09-.33-.16-.6s-.15-.54-.23-.82-.21-.68-.34-1.05a12.92,12.92,0,0,1-1.13-3,14.77,14.77,0,0,1-.42-3.57,14.43,14.43,0,0,1,.53-4.2,7.88,7.88,0,0,1,1.44-2.8,5.39,5.39,0,0,1,2.12-1.57,6.87,6.87,0,0,1,2.62-.49,7,7,0,0,1,2.59.48A5.45,5.45,0,0,1,61,43.15,7.68,7.68,0,0,1,62.43,46a16.34,16.34,0,0,1,.12,7.74,12.68,12.68,0,0,1-1.12,3l-.37,1.15q-.15.47-.27.9a2.65,2.65,0,0,0-.12.63v2.87l1.79.79,2.08.91,2.16.93,2.08.87,1.77.72"/><path class="cls-1" d="M105.5,74.62H122V71.51a8.55,8.55,0,0,0-.66-1.92,6.76,6.76,0,0,0-1-1.53,3.85,3.85,0,0,0-1.64-1.12c-.34-.11-.79-.28-1.35-.5l-1.87-.76-2.17-.92-2.27-1-2.14-.93-1.77-.79v-2.8c0-.13.09-.33.16-.6s.15-.54.23-.82.21-.68.34-1.05a12.92,12.92,0,0,0,1.13-3,14.77,14.77,0,0,0,.42-3.57,14.43,14.43,0,0,0-.53-4.2,7.88,7.88,0,0,0-1.44-2.8,5.39,5.39,0,0,0-2.12-1.57,6.87,6.87,0,0,0-2.62-.49,7,7,0,0,0-2.59.48A5.45,5.45,0,0,0,98,43.15,7.68,7.68,0,0,0,96.5,46a16.34,16.34,0,0,0-.12,7.74,12.68,12.68,0,0,0,1.12,3l.37,1.15q.15.47.27.9a2.65,2.65,0,0,1,.12.63v2.87L96.46,63l-2.08.91-2.16.93-2.08.87-1.77.72"/><path class="cls-2" d="M25.39,105.23A65.28,65.28,0,0,1,77.77,1"/><path class="cls-2" d="M131.83,29.68A65.29,65.29,0,0,1,77.77,131.55"/><polyline class="cls-2" points="126.38 53.86 130.78 27.46 154.98 38.46"/><polyline class="cls-2" points="29.31 80 25.41 106.48 1 95.93"/></g></g></svg>