<svg xmlns="http://www.w3.org/2000/svg" viewBox="0 0 171.31 145.5"><defs><style>.cls-1,.cls-2{fill:none;stroke-linecap:round;stroke-linejoin:round;stroke-width:2px;}.cls-1{stroke:#fff;}.cls-2{stroke:#4ab8b7;}</style></defs><title>content_strategy_icon</title><g id="Layer_2" data-name="Layer 2"><g id="CS_ICON" data-name="CS ICON"><path class="cls-1" d="M120.8,1H9.31A8.33,8.33,0,0,0,1,9.31v72a8.33,8.33,0,0,0,8.31,8.31H22.12v21.12L43.36,89.64H120.8a8.33,8.33,0,0,0,8.31-8.31v-72A8.33,8.33,0,0,0,120.8,1Z"/><path class="cls-1" d="M141.62,48.09H163a7.32,7.32,0,0,1,7.3,7.3v63.26a7.32,7.32,0,0,1-7.3,7.3H151.76V144.5l-18.65-18.55h-68a7.32,7.32,0,0,1-7.3-7.3V100.54"/><path class="cls-2" d="M62.66,71.5s21.19-17-.66-37.21"/><polyline class="cls-2" points="62.38 42.53 61.69 33.69 70.54 34.52"/><line class="cls-2" x1="32.01" y1="43.43" x2="42.33" y2="53.74"/><line class="cls-2" x1="32.01" y1="53.74" x2="42.33" y2="43.43"/><line class="cls-2" x1="82.14" y1="22.97" x2="92.46" y2="33.28"/><line class="cls-2" x1="82.14" y1="33.28" x2="92.46" y2="22.97"/><line class="cls-2" x1="87.26" y1="59.79" x2="97.57" y2="70.11"/><line class="cls-2" x1="87.26" y1="70.11" x2="97.57" y2="59.79"/><circle class="cls-2" cx="49.85" cy="23.28" r="4.77" transform="translate(-5.13 25.27) rotate(-27.1)"/></g></g></svg>