<svg xmlns="http://www.w3.org/2000/svg" viewBox="0 0 159.12 126.2"><defs><style>.cls-1,.cls-2{fill:none;stroke-linecap:round;stroke-linejoin:round;stroke-width:2px;}.cls-1{stroke:#4ab8b7;}.cls-2{stroke:#fff;}</style></defs><title>ico3_2</title><g id="Layer_2" data-name="Layer 2"><g id="icon_02"><path class="cls-1" d="M87.1,102v4.37l2.73,1.2L93,108.9l3.29,1.42,3.16,1.33,2.69,1.1c.8.33,1.44.57,1.94.74a5.85,5.85,0,0,1,2.54,1.71,10.44,10.44,0,0,1,1.53,2.33,11.88,11.88,0,0,1,1,2.92v4.75H51v-4.75a13,13,0,0,1,1-2.92,10.29,10.29,0,0,1,1.53-2.33A5.86,5.86,0,0,1,56,113.5c.52-.17,1.21-.43,2.06-.77l2.84-1.16,3.31-1.4,3.45-1.49L71,107.26l2.69-1.2V101.8c0-.2-.13-.5-.24-.92s-.23-.83-.36-1.25-.32-1-.52-1.61a19.67,19.67,0,0,1-1.72-4.58A22.48,22.48,0,0,1,70.17,88a22,22,0,0,1,.8-6.39,12,12,0,0,1,2.19-4.26A8.2,8.2,0,0,1,76.4,75a10.46,10.46,0,0,1,4-.75,10.62,10.62,0,0,1,3.94.73,8.29,8.29,0,0,1,3.25,2.35,11.69,11.69,0,0,1,2.21,4.26A24.86,24.86,0,0,1,90,93.34a19.3,19.3,0,0,1-1.7,4.55l-.56,1.75q-.23.72-.41,1.36A4,4,0,0,0,87.1,102Z"/><path class="cls-1" d="M37.1,37v4.37l2.73,1.2L43,43.9l3.29,1.42,3.16,1.33,2.69,1.1c.8.33,1.44.57,1.94.74a5.85,5.85,0,0,1,2.54,1.71,10.44,10.44,0,0,1,1.53,2.33,11.88,11.88,0,0,1,1,2.92V60.2H1V55.45a13,13,0,0,1,1-2.92A10.29,10.29,0,0,1,3.54,50.2,5.86,5.86,0,0,1,6,48.5c.52-.17,1.21-.43,2.06-.77l2.84-1.16,3.31-1.4,3.45-1.49L21,42.26l2.69-1.2V36.8c0-.2-.13-.5-.24-.92s-.23-.83-.36-1.25-.32-1-.52-1.61a19.67,19.67,0,0,1-1.72-4.58A22.48,22.48,0,0,1,20.17,23a22,22,0,0,1,.8-6.39,12,12,0,0,1,2.19-4.26A8.2,8.2,0,0,1,26.4,10a10.46,10.46,0,0,1,4-.75,10.62,10.62,0,0,1,3.94.73,8.29,8.29,0,0,1,3.25,2.35,11.69,11.69,0,0,1,2.21,4.26,22.29,22.29,0,0,1,.8,6.45A22.39,22.39,0,0,1,40,28.34a19.3,19.3,0,0,1-1.7,4.55l-.56,1.75q-.23.72-.41,1.36A4,4,0,0,0,37.1,37Z"/><path class="cls-1" d="M136.1,37v4.37l2.73,1.2L142,43.9l3.29,1.42,3.16,1.33,2.69,1.1c.8.33,1.44.57,1.94.74a5.85,5.85,0,0,1,2.54,1.71,10.44,10.44,0,0,1,1.53,2.33,11.88,11.88,0,0,1,1,2.92V60.2H100V55.45a13,13,0,0,1,1-2.92,10.29,10.29,0,0,1,1.53-2.33A5.86,5.86,0,0,1,105,48.5c.52-.17,1.21-.43,2.06-.77l2.84-1.16,3.31-1.4,3.45-1.49L120,42.26l2.69-1.2V36.8c0-.2-.13-.5-.24-.92s-.23-.83-.36-1.25-.32-1-.52-1.61a19.67,19.67,0,0,1-1.72-4.58,22.48,22.48,0,0,1-.64-5.44,22,22,0,0,1,.8-6.39,12,12,0,0,1,2.19-4.26A8.2,8.2,0,0,1,125.4,10a10.46,10.46,0,0,1,4-.75,10.62,10.62,0,0,1,3.94.73,8.29,8.29,0,0,1,3.25,2.35,11.69,11.69,0,0,1,2.21,4.26,22.29,22.29,0,0,1,.8,6.45,22.39,22.39,0,0,1-.62,5.33,19.3,19.3,0,0,1-1.7,4.55l-.56,1.75q-.23.72-.41,1.36A4,4,0,0,0,136.1,37Z"/><path class="cls-2" d="M49.3,106.19a57.06,57.06,0,0,1-25.38-36.7"/><path class="cls-2" d="M135.69,69a57.05,57.05,0,0,1-25.47,37.16"/><path class="cls-2" d="M47.89,10.73a57,57,0,0,1,63.74,0"/><polyline class="cls-2" points="20.17 78.56 24.02 69.41 31.8 75.45"/><polyline class="cls-2" points="109.27 1.87 112.56 11.23 102.73 11.98"/><polyline class="cls-2" points="119.17 107.73 109.3 106.65 112.87 97.46"/></g></g></svg>