<svg xmlns="http://www.w3.org/2000/svg" viewBox="0 0 137 137"><defs><style>.cls-1,.cls-2{fill:none;stroke-linecap:round;stroke-linejoin:round;stroke-width:2px;}.cls-1{stroke:#4ab8b7;}.cls-2{stroke:#fff;}</style></defs><title>ico1_1</title><g id="Layer_2" data-name="Layer 2"><g id="icon_01"><path class="cls-1" d="M52.29,116.26s6.12-8.16,5.61-25.5"/><path class="cls-1" d="M40,107.59a50.5,50.5,0,0,0,3.06-16.83C43.11,81.59,49.74,77,56.88,77s14.79,4.59,15.3,13.77-.51,15.81-5.1,29.07"/><path class="cls-1" d="M83.9,116.26c.51-3.06,9.49-34.19-8.16-47.42-16.32-12.24-30.6-3.57-32.13-2.55s-12.75,8.16-15.3,22.95"/><path class="cls-1" d="M24.75,62.21S42.69,41.53,68.61,49.46c25,7.65,33.15,25.5,33.15,49"/><path class="cls-1" d="M31.89,38.75c5.1-2,50.48-21.42,79.55,28.56"/><path class="cls-1" d="M49.74,19.89c4.08-1,30.09-5.1,51,13.26"/><path class="cls-2" d="M38.19,136H10.7A9.73,9.73,0,0,1,1,126.3V99.21"/><path class="cls-2" d="M136,99.21V126.3a9.73,9.73,0,0,1-9.7,9.7H98.81"/><path class="cls-2" d="M98.81,1H126.3a9.73,9.73,0,0,1,9.7,9.7V38.59"/><path class="cls-2" d="M1,38.59V10.7A9.73,9.73,0,0,1,10.7,1H38.19"/></g></g></svg>