<svg xmlns="http://www.w3.org/2000/svg" viewBox="0 0 155.49 133.5"><defs><style>.cls-1,.cls-2{fill:none;stroke-linecap:round;stroke-linejoin:round;stroke-width:2px;}.cls-1{stroke:#fff;}.cls-2{stroke:#4ab8b7;}</style></defs><title>establishing_process_icon</title><g id="Layer_2" data-name="Layer 2"><g id="EP_ICON" data-name="EP ICON"><path class="cls-1" d="M11,1H144.53a10,10,0,0,1,10,10V97.24a10,10,0,0,1-10,10H89.65L76.47,132.5,64.2,107.2H11a10,10,0,0,1-10-10V11A10,10,0,0,1,11,1Z"/><g id="cogwheels"><g id="cogwheel"><path class="cls-2" d="M97.31,56.67a31.11,31.11,0,0,0,0-8.88l-9.11-2.28a25.79,25.79,0,0,0-2.58-6.25l4.83-8a34.57,34.57,0,0,0-6.29-6.29l-8,4.83a25.79,25.79,0,0,0-6.25-2.58l-2.28-9.11a31.11,31.11,0,0,0-8.88,0l-2.28,9.11a25.75,25.75,0,0,0-6.25,2.58l-8-4.83a34.57,34.57,0,0,0-6.29,6.29l4.83,8a25.66,25.66,0,0,0-2.59,6.25L29,47.79a31.1,31.1,0,0,0,0,8.88l9.11,2.28a25.64,25.64,0,0,0,2.59,6.25l-4.83,8a34.58,34.58,0,0,0,6.29,6.29l8-4.83a25.78,25.78,0,0,0,6.25,2.58l2.28,9.11a31.14,31.14,0,0,0,8.88,0l2.28-9.11a25.77,25.77,0,0,0,6.25-2.59l8,4.83a34.64,34.64,0,0,0,6.28-6.29l-4.83-8a25.77,25.77,0,0,0,2.58-6.25ZM63.15,64.29A12.06,12.06,0,1,1,75.21,52.23,12.06,12.06,0,0,1,63.15,64.29Z"/></g><path class="cls-2" d="M116.52,89.75a16.65,16.65,0,0,1-2.07.51l-2.39-3.82h-.17a12.77,12.77,0,0,1-2.91-.23l-.16,0-3,3.4a17,17,0,0,1-3.8-1.94l1-4.38-.12-.11a12.42,12.42,0,0,1-1.89-2.22L101,80.8l-4.5.31a17.11,17.11,0,0,1-.81-2,16.64,16.64,0,0,1-.51-2.07L99,74.66V74.5a12.48,12.48,0,0,1,.22-2.91l0-.16-3.4-3a17,17,0,0,1,1.94-3.8l4.38,1,.11-.12a12.41,12.41,0,0,1,2.22-1.89l.14-.09-.31-4.5a17.15,17.15,0,0,1,2-.8,16.73,16.73,0,0,1,2.08-.52l2.39,3.82h.17a12.41,12.41,0,0,1,2.9.22l.16,0,2.95-3.39a17.11,17.11,0,0,1,3.81,1.93l-1,4.39.12.11a12.79,12.79,0,0,1,1.9,2.22l.09.14,4.49-.31a17.09,17.09,0,0,1,.8,2,16.61,16.61,0,0,1,.52,2.08l-3.82,2.39v.17a12.85,12.85,0,0,1-.23,2.91l0,.16L127,79.54a17.1,17.1,0,0,1-1.93,3.81l-4.39-1-.11.12a12.76,12.76,0,0,1-2.22,1.9l-.14.09.31,4.49A17.14,17.14,0,0,1,116.52,89.75ZM110,69.65a4.58,4.58,0,1,0,5.78,2.94A4.58,4.58,0,0,0,110,69.65Z"/></g></g></g></svg>