<svg xmlns="http://www.w3.org/2000/svg" viewBox="0 0 178.57 128.3"><defs><style>.cls-1{fill:#fff;}</style></defs><title>nucco_blog_logo</title><g id="Layer_2" data-name="Layer 2"><g id="NB_BLOG_LOGO" data-name="NB BLOG LOGO"><path class="cls-1" d="M46,75.51V66.11h.11l2.84,9.5c.42,1.23.48,1.23,1.94,1.23h.66V62.35c0-1.34,0-1.34-1.58-1.34h-.49V72h-.11l-3-9.76C45.85,61,45.85,61,44.4,61h-.48V76.85h.46C45.94,76.85,46,76.85,46,75.51Z"/><path class="cls-1" d="M54.39,61h-.53v9.24c0,4.58,0,6.75,3.92,6.75s4-2.18,4-6.75v-7.9c0-1.34,0-1.34-1.58-1.34h-.55v9.24c0,3.32,0,4.8-1.87,4.8S56,73.79,56,71V62.35C56,61,56,61,54.39,61Z"/><path class="cls-1" d="M67.87,62.9l.62.15c1.89.35,2.31.09,2.55-1.61L68,60.75c-4,0-4,3.56-4,8.05S64,77,68,77a24.47,24.47,0,0,0,3.08-.4V74.47c-1.14.07-2,.22-3.19.22-1.74,0-1.74-2.57-1.74-5.89S66.13,62.9,67.87,62.9Z"/><path class="cls-1" d="M76.71,62.9l.61.15c1.89.35,2.31.09,2.55-1.61l-3.05-.7c-4,0-4,3.56-4,8.05s0,8.2,4,8.2a24.56,24.56,0,0,0,3.08-.4V74.47c-1.14.07-2,.22-3.19.22C75,74.69,75,72.12,75,68.8S75,62.9,76.71,62.9Z"/><path class="cls-1" d="M90.17,68.8c0-5.59-1-8.05-4.22-8.05s-4.29,2.46-4.29,8.05S82.48,77,86,77,90.17,74.38,90.17,68.8Zm-6.42,0c0-3.94.68-6.1,2.2-6.1s2.18,2.2,2.18,6.12S87.65,75,86,75,83.75,72.74,83.75,68.8Z"/><path class="cls-1" d="M105.55,65.42v-.87a5.23,5.23,0,0,0-.15-1.52c0-.16-.11-.36-.2-.6a1.37,1.37,0,0,0-.32-.53,3.69,3.69,0,0,0-3.21-1l-3,.24V76.83l3.41.17a8.85,8.85,0,0,0,2.24-.26,2.3,2.3,0,0,0,.74-.34,5.69,5.69,0,0,0,.53-.41,1.51,1.51,0,0,0,.36-.54,7.09,7.09,0,0,0,.27-.77,11.87,11.87,0,0,0,.12-2.26,8.31,8.31,0,0,0-.31-2.66,3.71,3.71,0,0,0-1.1-1.53,2.77,2.77,0,0,0,.48-1.08A9.87,9.87,0,0,0,105.55,65.42Zm-4.89-2.59h1q1.24,0,1.6.55a3.92,3.92,0,0,1,.36,2,3.13,3.13,0,0,1-.33,1.8q-.33.37-1.63.37h-1l.2-.43V63.29Zm3.4,11.86q-.42.58-2,.58h-1.5l.2-.46V69.55l-.2-.46h1.5a2,2,0,0,1,2,1.07,4,4,0,0,1,.28,1.05,15.85,15.85,0,0,1,.07,1.72A3,3,0,0,1,104.06,74.69Z"/><path class="cls-1" d="M110.46,62.53c0-.67-.07-1.05-.21-1.16a3.15,3.15,0,0,0-1.38-.16h-.54V76.85h6.32v-.59q0-1-.21-1.17a3,3,0,0,0-1.38-.17h-2.8l.2-.54Z"/><path class="cls-1" d="M120.4,77a3.31,3.31,0,0,0,3.33-1.86,16,16,0,0,0,.86-6.18,15,15,0,0,0-.91-6.17,3.33,3.33,0,0,0-3.27-1.85,3.37,3.37,0,0,0-3.29,1.86,14.71,14.71,0,0,0-.93,6.16,15.63,15.63,0,0,0,.88,6.17A3.35,3.35,0,0,0,120.4,77Zm0-14.13q2.16,0,2.16,6a16.58,16.58,0,0,1-.48,4.62q-.48,1.53-1.68,1.53t-1.68-1.53a16.73,16.73,0,0,1-.48-4.64Q118.24,62.87,120.4,62.87Z"/><path class="cls-1" d="M132.7,68.74a3.15,3.15,0,0,0-.16,1.39v4.17l.17.54a13.07,13.07,0,0,1-1.83.22,1.57,1.57,0,0,1-.61-.11,1.06,1.06,0,0,1-.46-.39,5.85,5.85,0,0,1-.34-.54,2.45,2.45,0,0,1-.22-.78l-.15-1a17.45,17.45,0,0,1-.08-2v-2.5a14.51,14.51,0,0,1,.11-2.15q0-.35.12-.86a2.31,2.31,0,0,1,.22-.76,4.74,4.74,0,0,1,.34-.51,1.21,1.21,0,0,1,1.06-.5l.83.15a6.88,6.88,0,0,0,1.21.15,1.62,1.62,0,0,0,.62-.09q.41-.22.59-1.46l-3.24-.7a3.75,3.75,0,0,0-1.9.45,3.52,3.52,0,0,0-1.16,1,4.53,4.53,0,0,0-.59,1.81A18.81,18.81,0,0,0,127,66.3q0,.84,0,2.6v1.48q0,.48,0,1.34t.11,1.29q.06.44.2,1.1a3.51,3.51,0,0,0,.33,1q.2.35.49.77a2,2,0,0,0,.67.63,4.16,4.16,0,0,0,.9.35,5.27,5.27,0,0,0,1.35.14,17.84,17.84,0,0,0,2.35-.22l1.15-.15V68.55h-.72Q132.87,68.55,132.7,68.74Z"/><path class="cls-1" d="M134,49.94h0A14.41,14.41,0,0,0,131.48,45a32.38,32.38,0,0,0-.77-13.58c-1.75-6.37-7-10-9.26-11.33.36-1.38.33-3.71-2.24-6.49a10.16,10.16,0,0,0-6.8-3.61,10.63,10.63,0,0,0-2.92-3.47,6.4,6.4,0,0,0-4-1.09A4.5,4.5,0,0,0,102.42,3a6.79,6.79,0,0,0-3.48.28A9.33,9.33,0,0,0,94.51.2c-2.43-.64-5.75.41-7,.85L87.32.94c-5.46-1.82-8.55.27-9.86,1.58a5.46,5.46,0,0,0-5.54.59,4.35,4.35,0,0,0-1.59,2.44,6.4,6.4,0,0,0-5.57.69,5.49,5.49,0,0,0-2.53,5.67c-2,.1-5.1,1.15-8.58,5.57C49.29,23,49.15,27.63,49.35,29.6c-1.65,1-5.09,3.57-5.23,6.95A15.28,15.28,0,0,0,46,43.77a15,15,0,0,0-2.94,6.17h0v0l-.05.21h0l-.19,1c-.05.28-.24,1.25-.24,1.25h92a11.85,11.85,0,0,0-.28-1.4C134.1,50.34,134,49.94,134,49.94Zm-5.76-17.81A30.5,30.5,0,0,1,129.13,43a12.6,12.6,0,0,0-7.82-3.47,17.32,17.32,0,0,0,3.71-6.1,14.31,14.31,0,0,0-.57-7.71A15,15,0,0,1,128.22,32.13ZM88.76,3.36c1.33-.45,3.66-1,5.09-.66a7.59,7.59,0,0,1,3.59,2.91l.09.11C97.28,8.63,95.13,9,91.77,9.44a14.5,14.5,0,0,0-3.81.8C88.19,7.23,88.57,4.59,88.76,3.36ZM73.57,5.11c1.4-1.15,3.57.1,3.58.11l.17.08c4.28,2.45,4.42,7.16,3.17,10.56a1,1,0,0,0,.57,1.24.93.93,0,0,0,.33.06,1,1,0,0,0,.91-.63c1.52-4.11,1.07-9.21-3-12.22.83-.81,2.93-2.2,6.82-1a79.05,79.05,0,0,0-1,11.21,57.78,57.78,0,0,0,.57,7.75,9.36,9.36,0,0,0-8.54-1.34,7.54,7.54,0,0,0-5.14,5.33A6,6,0,0,0,74.39,32a3.51,3.51,0,0,0,2.32.78,5.68,5.68,0,0,0,3.69-1.43,3.22,3.22,0,0,0,.49-4.51l-.06-.08c-.25-.28-1.58-1.67-3-1.51a2.11,2.11,0,0,0-1.64,1.16,1,1,0,1,0,1.69.95c.05-.09.12-.18.16-.19.28,0,.93.42,1.33.85a1.3,1.3,0,0,1-.27,1.9c-1,.91-2.72,1.22-3.43.6A4,4,0,0,1,74,26.61a5.58,5.58,0,0,1,3.86-3.87,7.72,7.72,0,0,1,7.66,1.77l.67.56c.18,1.09.36,2.14.54,3.17L87,30c-2,4.62-8.42,6.7-13.33,5.64-2.07-.44-6.8-2.14-6-8.21.64-4.88,2.15-6.34,3.75-7.89A11.78,11.78,0,0,0,75,14c.81-2.59-.74-4.82-2.09-6.14l-.06-.09A2.38,2.38,0,0,1,73.57,5.11ZM45.75,49.94a13.12,13.12,0,0,1,1.48-3.44c0,.43.05.88.08,1.29,0,.69.08,1.42.13,2.15Zm8.81,0a4.75,4.75,0,0,1,.22-.66,3.31,3.31,0,0,1,4.06-2,4.28,4.28,0,0,1,2.93,2.68Zm4.67-4.58A5.22,5.22,0,0,0,53,48.52a6.94,6.94,0,0,0-.42,1.42h-3.2c-.06-.79-.1-1.56-.14-2.26a31.85,31.85,0,0,0-.33-3.79,1.29,1.29,0,0,0-.14-.5,1.54,1.54,0,0,0-.29-.52,13.16,13.16,0,0,1-1.78-6.21c.07-1.68,1.81-3.31,3.25-4.35,0,3.09.84,7.62,3.18,10.42a1,1,0,0,0,.74.35,1,1,0,0,0,.74-1.59c-2.27-2.73-2.85-8.18-2.59-10.93h0a1.31,1.31,0,0,0,0-.62c-.05-.19-1.17-4.73,3.67-10.85,4.55-5.76,7.68-4.52,7.78-4.48a1.26,1.26,0,0,0,.32.1c1.16,1.62-.15,3.84-2.32,7.22-2.36,3.68-5,7.85-3.92,12.53.81,3.4,3.53,6.47,8.28,9.37a13.27,13.27,0,0,0-2.73,4.43A5.82,5.82,0,0,0,59.24,45.36Zm15.51,4.58c.15,0,4.49-3.75,11.19,0ZM87,45.4c-.22,1.4-.07,1.56-.21,2.86-8.5-4.73-14.09.71-15.21,1.68H64.53A10,10,0,0,1,70,43.12c4.06-2,10.14-1.53,16.73,1.12l.43.17Zm.45-3c-4.17-1.72-12.08-4.13-18.31-1.07a11.94,11.94,0,0,0-1.82,1.11l0,0c-4.6-2.7-7.18-5.47-7.89-8.46-.92-3.88,1.52-7.68,3.67-11s4-6.26,2.61-8.87c-.1-.28-.27-.68-.52-1.24-.14-.3-1.35-3,1-4.46,2.51-1.61,4.88.38,5,.46a1.05,1.05,0,0,0,.28.18c1,.91,2.32,2.57,1.77,4.36a9.87,9.87,0,0,1-3.1,4.72c-1.77,1.71-3.61,3.48-4.33,9-.68,5.24,2.2,9.21,7.52,10.35a14.49,14.49,0,0,0,3.09.32c4.2,0,8.59-1.69,11.11-4.89a34.65,34.65,0,0,1,.38,4.66A36.12,36.12,0,0,1,87.48,42.45Zm4.59,6.1a6.46,6.46,0,0,0,.25,1.39H89c.13-1.3.35-2.69.58-4.13a52.56,52.56,0,0,0,.86-8.21,48.92,48.92,0,0,0-.85-7.88c2.24-.3,3.79,0,4.61.94,1.9,2.16.29,7.73-.89,11.8C92.6,45,92,47.14,92.07,48.55Zm8.86,1.39H99.09a1,1,0,0,0,.27-.3A1,1,0,0,0,99,48.32c-.46-.26-.75-.47-.7-.94a1.23,1.23,0,0,1,1.17-1.18,1.29,1.29,0,0,1,1.54.94A4.51,4.51,0,0,1,100.92,49.94Zm7.81-5.82a8.83,8.83,0,0,0-6.37-5.6,1,1,0,0,0-.39,1.9,6.94,6.94,0,0,1,5,4.44,11.4,11.4,0,0,1,.79,5.08h-4.8a6.11,6.11,0,0,0-.1-3.47,3.43,3.43,0,0,0-3.78-2.17,3.37,3.37,0,0,0-2.71,3.27,2.77,2.77,0,0,0,1.6,2.37H94.37A4.68,4.68,0,0,1,94,48.43,22.35,22.35,0,0,1,95.19,43c1.44-5,3.08-10.66.48-13.61-1.28-1.46-3.44-2-6.4-1.57v0A76.71,76.71,0,0,1,87.79,14.5c0-.61,0-1.23,0-1.84.6-.78,1.92-1,4.17-1.3,3-.35,7.07-.83,7.46-5.48a4.58,4.58,0,0,1,2.45-.31c1.54.27,1.89,2.3,1.93,2.61.42,3.43.57,6.88-.72,9.66-4.26-4-7.74-3.77-9.5-3.24a6.12,6.12,0,0,0-4.31,4.71,4.83,4.83,0,0,0,2,4.85,4.51,4.51,0,0,0,2.69,1,3.53,3.53,0,0,0,1.62-.39,3.88,3.88,0,0,0,2.07-3.43,2.79,2.79,0,0,0-1.62-2.57,1,1,0,1,0-.84,1.75.86.86,0,0,1,.52.85,2,2,0,0,1-1,1.68,2.19,2.19,0,0,1-2.28-.43,2.92,2.92,0,0,1-1.23-3,4.17,4.17,0,0,1,3-3.18c1.39-.42,4.23-.53,7.93,3.1-.36.52-.72,1-1.07,1.47-1.9,2.54-3.4,4.55-2.26,9.36.85,3.6,3.79,6.28,7.85,7.15a13.07,13.07,0,0,0,2.75.29c3.13,0,6-1.14,7.53-3.11s1.61-4.72.15-7.61a1,1,0,0,0-1.73.88c1.12,2.21,1.14,4.13,0,5.55-1.5,1.94-5,2.83-8.34,2.11-1.59-.34-5.4-1.59-6.37-5.7-.93-3.93.15-5.37,1.93-7.76.48-.64,1-1.37,1.57-2.21,2.24-3.44,2.12-7.74,1.61-12a3.73,3.73,0,0,1,2.21.63,8.51,8.51,0,0,1,2.34,3,16.62,16.62,0,0,0-.38,5.2,18.77,18.77,0,0,1-.27,4.76,11.41,11.41,0,0,1-1.37,2.5c-1.29,2-2.89,4.43-.77,6.75a1,1,0,0,0,.24.19,4.91,4.91,0,0,0,2.17.6,2.6,2.6,0,0,0,1.24-.29,2.82,2.82,0,0,0,1.39-2.44,1,1,0,0,0-1.93-.18c0,.28-.1.77-.36.9a2,2,0,0,1-1.42-.21c-.86-1.06-.32-2.14,1.07-4.26a12.77,12.77,0,0,0,1.59-3,19.45,19.45,0,0,0,.36-5.37,24.15,24.15,0,0,1,.16-4.2c.71,0,2.87.21,5.26,2.8s1.57,4.38,1.46,4.57l0,0a6,6,0,0,0-3.08,1.09,1,1,0,1,0,1.08,1.61,3.17,3.17,0,0,1,2.86-.61h0l.59.33a6,6,0,0,1,.64.92c.23.37.48.78.77,1.21a10.19,10.19,0,0,1,1.53,7.93,11.28,11.28,0,0,1-5.08,7.21l-.06,0a13.62,13.62,0,0,0-8.84,5.65A12.51,12.51,0,0,0,108.73,44.12Zm7.62,5.82a6.32,6.32,0,0,1,4.91-1.48A5.06,5.06,0,0,1,124,49.94Zm10.14,0a7.41,7.41,0,0,0-4.91-3.39A8.62,8.62,0,0,0,114,49.44a5.7,5.7,0,0,0-.41.5h-3.93a13.46,13.46,0,0,0,0-1.83c.25-.35.52-.83.6-1a11.65,11.65,0,0,1,10.26-5.72,10.31,10.31,0,0,1,8.79,4.94,13.51,13.51,0,0,1,2,3.55Z"/><path class="cls-1" d="M133.9,88.09l-.06-.3-.06-.27c-.05-.25-.12-.53-.17-.72-.19-.67-.38-1.29-.38-1.29H43.12V86.8h0c0,.39,0,.79,0,1.21v.08h0a33.65,33.65,0,0,0,1.17,7.62c1.6,5.81,6,9.42,8.62,11.14a4.2,4.2,0,0,0,.92.89c-.29,1.45-.11,3.74,2.39,6.45a10.52,10.52,0,0,0,7,3.74,11,11,0,0,0,3,3.6,6.64,6.64,0,0,0,4.15,1.13,4.66,4.66,0,0,0,3.17,2.48,7,7,0,0,0,3.61-.29,9.64,9.64,0,0,0,4.59,3.24,7,7,0,0,0,1.79.21A17.31,17.31,0,0,0,89,127.22l0,0,.11.05.08,0a13.18,13.18,0,0,0,4.19.74,8.29,8.29,0,0,0,6-2.38,5.65,5.65,0,0,0,5.74-.61,5,5,0,0,0,1.73-2.55,6.29,6.29,0,0,0,5.69-.69,5.69,5.69,0,0,0,2.62-5.88c2.07-.1,5.28-1.2,8.9-5.77,4.53-5.73,4.68-10.52,4.46-12.57,1.71-1.07,5.27-3.7,5.42-7.21a10.86,10.86,0,0,0-.17-2.32Zm-52.64,0H87.5c.07.9.15,1.89.24,2.94.17,2.05.36,4.35.49,6.58-2.48.34-6,.15-6.91-.83C79.86,95.14,80.4,91.55,81.26,88.09ZM46.9,95a30.87,30.87,0,0,1-1.06-6.91h6.9a13.56,13.56,0,0,0-3.37,6.44,12.85,12.85,0,0,0,0,5.44A14.76,14.76,0,0,1,46.9,95Zm35.62,30.5a7.82,7.82,0,0,1-3.66-2.93c.05-1.77.43-3,1.13-3.63,1-.88,2.59-.69,4.16-.5a12.35,12.35,0,0,0,2.11.13c0,.21,0,.41,0,.62a16.4,16.4,0,0,0,1.28,5.71C86.14,125.35,83.92,125.88,82.52,125.51Zm5.8-21.65a48.35,48.35,0,0,1-1.1,7.41,49.6,49.6,0,0,0-.88,5.28,9.65,9.65,0,0,1-2-.11c-1.83-.21-4.11-.49-5.75,1-1.06,1-1.64,2.51-1.76,4.67a4.52,4.52,0,0,1-2.72.4c-1.15-.23-1.53-1.59-1.54-1.64a1.32,1.32,0,0,0-.28-.53c-.08-.47-.15-.94-.23-1.4-.53-3.09-1.07-6.27,0-8.86,3.08,2.89,5.78,3.64,7.74,3.64a7.17,7.17,0,0,0,2.09-.3,6.34,6.34,0,0,0,4.47-4.88,5,5,0,0,0-2.07-5,4.07,4.07,0,0,0-4.47-.61,4,4,0,0,0-2.14,3.55,2.9,2.9,0,0,0,1.68,2.66,1,1,0,0,0,.87-1.81.89.89,0,0,1-.54-.88,2,2,0,0,1,1.06-1.74,2.27,2.27,0,0,1,2.36.45,3,3,0,0,1,1.28,3.07,4.32,4.32,0,0,1-3.07,3.3c-1.44.44-4.38.55-8.21-3.21.38-.54.75-1,1.11-1.52,2-2.64,3.52-4.72,2.34-9.71-.88-3.73-3.92-6.5-8.14-7.41s-8.62.29-10.66,2.92c-1.62,2.1-1.67,4.9-.16,7.89a1,1,0,1,0,1.79-.91c-1.16-2.3-1.18-4.28,0-5.75,1.55-2,5.18-2.93,8.64-2.18,1.65.35,5.6,1.64,6.61,5.91,1,4.07-.15,5.57-2,8-.49.66-1,1.4-1.6,2.26l0,0h0c-2.23,3.41-1.5,7.66-.86,11.42l.12.71a3.91,3.91,0,0,1-2.39-.65,9.19,9.19,0,0,1-2.53-3.3,1.37,1.37,0,0,0-.21-.33,23.57,23.57,0,0,0,0-4.49,18.1,18.1,0,0,1,.14-5,11.83,11.83,0,0,1,1.42-2.59c1.33-2,3-4.6.8-7a1,1,0,0,0-.25-.2c-.21-.11-2.06-1.1-3.53-.32a2.91,2.91,0,0,0-1.44,2.53,1,1,0,0,0,2,.18c0-.29.11-.8.37-.94a2.1,2.1,0,0,1,1.48.23c.88,1.09.33,2.21-1.11,4.42a13.08,13.08,0,0,0-1.65,3.09,18.51,18.51,0,0,0-.22,5.72,29.23,29.23,0,0,1,0,3.9,8.11,8.11,0,0,1-5-2.87c-1.94-2.1-1.88-3.61-1.69-4.31a9.62,9.62,0,0,0,2.56-1.31A1,1,0,1,0,58,105.08a10.6,10.6,0,0,1-1.39.81,1.49,1.49,0,0,0-.39-.27,18.43,18.43,0,0,1-2.78-1.73c-.15-.24-.31-.48-.48-.73a10.58,10.58,0,0,1-1.58-8.23,11.65,11.65,0,0,1,4.39-6.84H79.19c-1,3.93-1.38,7.75.62,10a6,6,0,0,0,4.74,1.78c.57,0,2.69-.15,3.77-.27C88.38,101.15,88.39,102.6,88.32,103.85ZM103.55,123a1.77,1.77,0,0,1-1.58.43l-.11-.06c-4.77-2.3-7.76-7.28-6.3-11.24a1,1,0,0,0-1.88-.69c-1.53,4.14.3,8.89,4.3,11.95-.33.46-2.45,3-7.41,1.53a12.59,12.59,0,0,1-1.61-5.86,29.8,29.8,0,0,1,.9-7.25c.38-1.85.76-3.75,1-5.8a9.85,9.85,0,0,0,5,1.41,9.5,9.5,0,0,0,3.07-.51,7.81,7.81,0,0,0,5.32-5.53,6.17,6.17,0,0,0-2.38-5.93c-1.67-1.44-4.62-.8-6.22.67a3.34,3.34,0,0,0-.51,4.68l.07.08c.26.29,1.64,1.74,3.13,1.57a2.19,2.19,0,0,0,1.7-1.21,1,1,0,1,0-1.75-1c-.05.09-.12.19-.17.19-.3,0-1-.44-1.38-.88a1.35,1.35,0,0,1,.28-2c1-.94,2.82-1.26,3.55-.62a4.21,4.21,0,0,1,1.72,4,5.8,5.8,0,0,1-4,4A7.79,7.79,0,0,1,91,103.72a78.38,78.38,0,0,0-.25-8.31c2-3.87,7.55-5.4,11.88-4.36,2.14.51,7,2.43,6.17,9.11-.58,4.42-2.57,6-4.5,7.49s-3.84,3-3.15,6.9a10.69,10.69,0,0,0,2.81,5.28h0A2.06,2.06,0,0,1,103.55,123Zm7.67-3.43a4.17,4.17,0,0,1-4.31.14,9.18,9.18,0,0,1-3.77-5.53c-.48-2.71.61-3.56,2.41-5a11.8,11.8,0,0,0,5.25-8.81c.88-6.78-3.39-10.29-7.69-11.32s-9.51,0-12.59,3.23l-.13-1.51c-.08-1-.15-1.88-.22-2.71h23.89a11.29,11.29,0,0,1,3.49,5.35c1,4-1.3,7.91-3.35,11.37s-4.11,6.92-2,9.73C112.46,115,113.56,118.08,111.22,119.58Zm10.86-11.05c-4.67,5.91-8,5-8.13,4.91-1.37-1.7-.12-4,2-7.59,2.25-3.79,4.8-8.09,3.56-12.9a12,12,0,0,0-2.65-4.85h5c-.07.14-.13.27-.19.42-1.15,2.92,1.23,6.52,4.23,8.73v0C125.93,97.47,127.09,102.18,122.08,108.52Zm9.31-18.23c-.1,2.2-3,4.35-4.46,5.23-2.31-1.76-4.12-4.48-3.42-6.27a2.08,2.08,0,0,1,.88-1.16h1.24a3.6,3.6,0,0,1,1.8,1.63c.24.65.45,1,1,1a1,1,0,0,0,1-1,2.88,2.88,0,0,0-.62-1.63h2.36A8.73,8.73,0,0,1,131.39,90.3Z"/><path class="cls-1" d="M11.82,60.34H3.29S0,60.38,0,68c0,7.94,3.29,7.74,3.29,7.74H35.55V60.34H11.82Zm-5,13H5.35V62.79H6.87Zm2.56,0H7.91V62.79H9.43Zm23-.11H11.82V69.79H32.4ZM32.4,63v3.2H11.82V63Z"/><path class="cls-1" d="M163.81,60.42h-21v16.1h20.86l14.86-6.72ZM164,73.6H145.79V70.3h16.85a2.07,2.07,0,0,0,0-3.75H145.79v-3h18.35L170,67.29a6.15,6.15,0,0,0-.42,2.14,4.66,4.66,0,0,0,.26,1.36Z"/></g></g></svg>