<svg xmlns="http://www.w3.org/2000/svg" viewBox="0 0 157.64 158"><defs><style>.cls-1,.cls-4{fill:none;}.cls-1{stroke:#fff;}.cls-1,.cls-3,.cls-4,.cls-5{stroke-linecap:round;stroke-linejoin:round;stroke-width:2px;}.cls-2,.cls-5{fill:#fff;}.cls-3{fill:#282828;}.cls-3,.cls-4,.cls-5{stroke:#4ab8b7;}</style></defs><title>section_04_icon</title><g id="Layer_2" data-name="Layer 2"><g id="SECTION_04_ICON" data-name="SECTION 04 ICON"><path class="cls-1" d="M10.79,119.21a74.86,74.86,0,0,1,96.42-105"/><path class="cls-1" d="M143.51,50.22A74.84,74.84,0,0,1,23.42,135.59"/><path class="cls-1" d="M101.92,120.88A46.66,46.66,0,1,1,114.71,108"/><path class="cls-1" d="M75.83,64.72A17.45,17.45,0,1,1,58.38,82.17,17.45,17.45,0,0,1,75.83,64.72Z"/><path class="cls-2" d="M75.83,78a4.13,4.13,0,1,1-4.13,4.13A4.13,4.13,0,0,1,75.83,78Z"/><path class="cls-3" d="M112.21,45.43V22l21-21V24.38Zm21-21h23.38l-21,21H112.21Z"/><line class="cls-4" x1="75.55" y1="82.09" x2="139.27" y2="18.37"/><line class="cls-4" x1="118.55" y1="30.88" x2="118.55" y2="38.41"/><line class="cls-4" x1="118.55" y1="24.24" x2="118.55" y2="25.38"/><line class="cls-4" x1="125.56" y1="16.88" x2="125.56" y2="31.4"/><line class="cls-4" x1="138.53" y1="32.08" x2="141.36" y2="32.08"/><line class="cls-4" x1="125.85" y1="32.08" x2="132.46" y2="32.08"/><line class="cls-5" x1="118.06" y1="39.58" x2="129.75" y2="39.58"/></g></g></svg>