<svg id="Layer_1" xmlns="http://www.w3.org/2000/svg" viewBox="0 0 135.2 30"><style>.st0{fill:#fff}</style><path class="st0" d="M12.2 18.6L8 4.5H4.5v20.9h3.1V12L12 25.4h3.4V4.5h-3.2zm13.2 2.1c0 .5-.2.9-.5 1.3-.4.4-.8.5-1.3.5s-.9-.2-1.3-.5c-.4-.4-.5-.8-.5-1.3V4.5h-3.1v16.2c0 1.4.5 2.6 1.5 3.5 1 1 2.2 1.5 3.5 1.5 1.4 0 2.6-.5 3.5-1.4 1-1 1.5-2.1 1.5-3.5V4.5h-3.3v16.2zM37.1 4.3c-1.4 0-2.6.5-3.5 1.5-1 1-1.5 2.2-1.5 3.6v11.4c0 1.4.5 2.6 1.5 3.5 1 1 2.2 1.5 3.6 1.5s2.5-.5 3.5-1.5 1.5-2.2 1.5-3.5v-2.9h-3.3v2.9c0 .5-.2.9-.5 1.3-.4.4-.8.5-1.3.5s-.9-.2-1.3-.5c-.4-.4-.5-.8-.5-1.3V9.2c0-.5.2-.9.5-1.3.4-.4.8-.5 1.3-.5s.9.2 1.3.5c.4.4.5.8.5 1.3v2.5h3.3V9.3c0-1.4-.5-2.6-1.5-3.5-1-1-2.2-1.5-3.6-1.5zm12.2 0c-1.4 0-2.6.5-3.5 1.5-1 1-1.5 2.2-1.5 3.6v11.4c0 1.4.5 2.6 1.5 3.5 1 1 2.2 1.5 3.6 1.5s2.5-.5 3.5-1.5 1.5-2.2 1.5-3.5v-2.9H51v2.9c0 .5-.2.9-.5 1.3-.4.4-.8.5-1.3.5s-.9-.2-1.3-.5c-.4-.4-.5-.8-.5-1.3V9.2c0-.5.2-.9.5-1.3.4-.4.8-.5 1.3-.5s.9.2 1.3.5c.4.4.5.8.5 1.3v2.5h3.3V9.3c0-1.4-.5-2.6-1.5-3.5-.9-1-2.1-1.5-3.5-1.5zm12.9-.1c-1.4 0-2.5.5-3.5 1.5s-1.5 2.2-1.5 3.6v11.4c0 1.4.5 2.6 1.5 3.5 1 1 2.2 1.5 3.5 1.5 1.4 0 2.6-.5 3.5-1.5 1-1 1.5-2.2 1.5-3.6V9.2c0-1.4-.5-2.6-1.5-3.5s-2.1-1.5-3.5-1.5zM64 20.6c0 .5-.2.9-.5 1.3-.4.4-.8.5-1.3.5s-.9-.2-1.3-.5c-.4-.4-.5-.8-.5-1.3V9.2c0-.5.2-.9.5-1.3.4-.4.8-.5 1.3-.5s.9.2 1.3.5c.3.4.5.8.5 1.3v11.4zm20.7-4.5c-.5-.8-1.1-1.3-1.8-1.6.4-.2.8-.5 1.1-.8.7-.8 1.1-2 1.1-3.4 0-.9-.1-1.6-.3-2.2-.4-1.2-1-2-1.8-2.6-1-.7-2.1-1-3.4-1h-4.7v21h5.9c.8 0 1.6-.2 2.4-.7.7-.4 1.3-1 1.7-1.7.5-.9.8-2.1.8-3.4 0-.5 0-1-.1-1.5-.3-.9-.5-1.6-.9-2.1zm-6.4-8.4h1.3c.6 0 1.1.2 1.5.6.4.4.6 1.1.6 2 0 .5-.1 1-.2 1.3-.3 1-1 1.4-2 1.4h-1.3V7.7zm3.6 13c-.4 1.1-1.2 1.7-2.2 1.7h-1.3v-6.3h1.3c.8 0 1.4.2 1.8.7.4.5.7 1.4.7 2.6-.1.5-.2.9-.3 1.3zM98 12.6v-3c0-1.6-.3-2.8-1-3.6-.8-1-2.1-1.5-3.9-1.5h-5v20.9h3.2v-7.9h2.1l1.9 7.9h3.4l-2.3-9.1c1.1-1 1.6-2.3 1.6-3.7zm-3 0c0 .5-.2.9-.5 1.3-.4.4-.8.5-1.3.5h-1.9V7.8h1.9c1.2 0 1.8.6 1.8 1.8v3zm9.4-8.1l-3.6 20.9h3.3l.8-4.8h3.3l.7 4.8h3.3l-3.5-20.9h-4.3zm1 13.1l1.2-8.3 1.2 8.3h-2.4zm9.1-7.6h3.2v15.5h-3.2zm14-5.5v14.1l-4.2-14.1h-3.6v21h3.2V12l4.3 13.5h3.4v-21zm-14 0h3.2v3.3h-3.2z"/></svg>