<?xml version="1.0" standalone="no"?>
<!DOCTYPE svg PUBLIC "-//W3C//DTD SVG 20010904//EN"
 "http://www.w3.org/TR/2001/REC-SVG-20010904/DTD/svg10.dtd">
<svg version="1.0" xmlns="http://www.w3.org/2000/svg"
 width="360.000000pt" height="360.000000pt" viewBox="0 0 360.000000 360.000000"
 preserveAspectRatio="xMidYMid meet">
<metadata>
Created by potrace 1.11, written by Peter Selinger 2001-2013
</metadata>
<g transform="translate(0.000000,360.000000) scale(0.100000,-0.100000)"
fill="#000000" stroke="none">
<path d="M1865 3397 c-60 -12 -99 -12 -181 -3 -70 9 -125 -3 -175 -37 -26 -17
-41 -21 -62 -16 -60 16 -137 -13 -162 -61 -14 -28 -20 -30 -71 -30 -57 0 -115
-22 -146 -57 -22 -24 -50 -91 -43 -103 9 -15 -7 -40 -26 -40 -41 0 -117 -47
-179 -110 -106 -108 -170 -236 -173 -351 -2 -50 -5 -60 -26 -71 -40 -22 -110
-108 -122 -150 -14 -54 -3 -135 31 -212 11 -27 15 -48 9 -51 -16 -10 -56 -96
-75 -160 -23 -79 -23 -232 1 -300 9 -27 29 -70 44 -95 22 -37 26 -53 21 -90
-3 -25 -5 -76 -4 -115 5 -239 74 -392 234 -520 64 -51 70 -59 70 -92 0 -90
104 -208 211 -241 40 -12 66 -27 77 -43 41 -60 87 -93 147 -104 23 -4 51 -19
69 -36 33 -32 79 -44 132 -35 29 6 38 3 54 -16 25 -33 105 -70 154 -73 22 -1
69 5 103 13 47 10 75 11 109 4 81 -17 148 -9 203 25 40 25 55 30 82 24 61 -13
138 19 164 68 12 24 18 26 66 25 97 -4 173 58 185 149 5 34 11 47 23 47 28 1
103 39 149 77 56 46 126 140 163 218 29 61 34 82 45 169 6 44 13 56 74 116 59
58 69 74 75 113 9 56 0 114 -26 188 l-21 57 24 38 c47 76 70 166 73 279 1 80
-16 154 -53 225 -30 56 -31 63 -29 172 2 126 -6 195 -30 277 -34 121 -106 224
-206 297 -57 42 -62 49 -64 87 -7 104 -110 219 -223 248 -39 10 -55 20 -69 45
-27 45 -93 91 -143 99 -26 5 -53 18 -70 35 -30 30 -89 46 -135 36 -22 -5 -36
1 -63 25 -66 59 -125 74 -215 56z m135 -93 c18 -10 42 -31 53 -46 18 -24 18
-30 7 -58 -19 -46 -42 -55 -185 -76 -16 -2 -43 -7 -59 -10 l-28 -6 6 58 c16
148 14 142 60 152 58 13 109 8 146 -14z m-276 -24 c0 -19 -4 -73 -8 -120 -10
-109 -10 -258 -1 -337 6 -61 1 -75 -22 -52 -31 31 -143 41 -221 19 -122 -33
-190 -181 -126 -276 46 -68 87 -84 160 -64 89 25 124 117 68 174 -36 35 -82
47 -111 28 -46 -29 -18 -87 28 -59 17 10 23 9 39 -11 23 -28 17 -48 -21 -67
-44 -23 -74 -19 -103 16 -70 83 7 199 139 213 48 4 100 -12 154 -47 39 -26 43
-36 57 -146 6 -47 -48 -116 -120 -153 -135 -69 -298 -61 -386 18 -63 57 -77
136 -45 259 17 62 42 102 112 173 98 100 118 207 55 293 -18 24 -32 52 -32 64
0 98 151 70 216 -41 22 -38 27 -57 26 -112 0 -37 -5 -79 -10 -93 -8 -20 -7
-32 2 -45 33 -45 69 30 68 142 0 71 -29 148 -73 190 -16 15 -29 32 -29 36 0
19 67 38 125 35 l60 -2 -1 -35z m496 -50 c10 -5 24 -26 30 -46 17 -50 17 -199
1 -256 l-13 -47 -37 29 c-88 71 -200 91 -280 51 -112 -58 -127 -209 -26 -271
101 -63 215 25 171 131 -11 25 -55 42 -72 28 -12 -10 -11 -16 5 -42 15 -24 17
-35 8 -54 -5 -12 -14 -24 -19 -24 -4 -1 -14 -2 -20 -3 -25 -4 -60 18 -74 45
-18 35 -18 43 3 86 42 89 170 88 278 0 l30 -25 -43 -60 c-65 -94 -78 -145 -58
-247 26 -134 142 -224 295 -231 118 -5 211 35 257 111 38 62 13 215 -35 215
-27 0 -32 -24 -15 -67 49 -117 -54 -214 -211 -200 -146 14 -229 93 -239 229
-4 55 19 108 89 206 66 93 91 204 75 333 -5 41 -4 49 9 49 42 0 126 -89 115
-122 -3 -10 -7 -75 -8 -146 l-3 -127 -47 -82 c-67 -115 -64 -178 10 -209 58
-24 117 6 117 62 0 47 -46 54 -57 9 -5 -18 -12 -23 -28 -20 -49 10 -46 36 18
145 46 78 47 80 49 243 1 54 6 102 11 107 13 13 93 -25 132 -63 39 -37 71 -94
66 -120 -3 -23 1 -20 -56 -41 -40 -15 -48 -22 -48 -43 0 -23 3 -25 33 -18 87
18 99 14 139 -45 63 -94 78 -194 43 -287 -35 -94 -103 -164 -179 -184 -64 -17
-115 -47 -172 -101 l-52 -49 -11 34 c-27 80 -157 181 -203 156 -30 -16 -20
-39 26 -59 119 -50 176 -205 130 -348 -23 -70 -101 -164 -161 -193 -39 -19
-64 -24 -133 -24 -77 0 -92 3 -153 33 -42 21 -71 42 -77 56 -13 34 -17 160 -9
224 5 31 11 75 14 97 2 22 7 51 10 65 12 49 13 256 3 328 -5 41 -7 76 -4 80
13 12 84 4 109 -13 58 -37 55 -142 -7 -349 -52 -171 -50 -235 10 -304 79 -93
206 -77 255 32 34 74 22 160 -26 192 -90 59 -196 -55 -123 -133 25 -27 41 -29
58 -8 11 13 9 20 -9 39 l-23 24 21 21 c39 39 78 -2 66 -69 -11 -65 -47 -100
-100 -100 -33 1 -50 11 -83 54 -28 36 -28 80 -1 182 76 281 82 369 31 433 -33
41 -77 60 -144 60 -26 1 -49 5 -52 10 -3 4 -8 33 -11 62 -4 30 -8 60 -11 68
-6 18 -18 177 -18 251 -1 49 2 56 25 67 15 7 62 18 105 24 134 18 191 57 209
141 6 24 11 28 41 28 20 0 44 -4 54 -10z m-912 -103 c70 -66 55 -153 -43 -247
-82 -78 -123 -165 -132 -282 -8 -99 10 -152 72 -214 36 -36 67 -56 105 -69 63
-21 169 -27 232 -14 59 13 156 62 195 99 32 30 32 30 39 7 10 -30 7 -228 -3
-238 -5 -5 -31 0 -59 10 -173 66 -375 67 -491 2 -30 -18 -44 -20 -63 -12 -42
16 -137 98 -168 143 -79 116 -66 210 55 403 102 164 112 205 74 308 -23 62
-21 95 9 122 45 41 124 32 178 -18z m-227 -168 c15 -25 -5 -79 -71 -189 -108
-181 -125 -222 -125 -310 0 -56 6 -87 22 -123 26 -57 108 -145 173 -187 l48
-31 -34 -56 c-19 -31 -34 -61 -34 -66 0 -5 -18 7 -40 27 -93 84 -218 59 -266
-52 -19 -45 -14 -141 11 -178 22 -34 74 -64 111 -64 83 0 121 119 49 152 -21
9 -29 9 -41 -4 -15 -14 -14 -18 5 -37 l21 -21 -20 -20 -21 -21 -29 21 c-33 23
-44 49 -42 100 3 76 46 120 111 115 76 -6 123 -77 124 -190 2 -98 -27 -155
-97 -195 -56 -33 -99 -37 -150 -16 -93 39 -127 129 -141 380 -3 54 -13 117
-21 140 -9 22 -24 64 -35 91 -33 88 -22 140 40 199 17 17 31 28 32 25 0 -2 2
-22 5 -44 12 -109 54 -222 96 -258 19 -16 23 -16 36 -3 14 13 12 22 -16 78
-41 82 -53 139 -56 273 -2 84 1 124 15 171 35 114 146 255 232 295 43 20 95
19 108 -2z m1836 -377 c40 -60 59 -107 74 -185 12 -60 21 -247 13 -247 -3 0
-23 12 -46 26 -52 33 -96 52 -139 59 -43 8 -42 8 -19 33 11 11 34 48 51 82 35
69 50 193 31 249 -16 45 -2 38 35 -17z m-76 -412 c91 -25 191 -132 228 -246
37 -113 14 -286 -51 -375 -23 -32 -32 -39 -39 -28 -5 8 -8 84 -7 169 1 142 -1
160 -22 208 -54 124 -185 175 -305 118 -105 -50 -146 -124 -150 -273 -2 -78
-6 -100 -31 -148 -87 -173 -279 -224 -536 -144 -64 21 -67 23 -72 58 -16 105
-18 133 -10 129 91 -44 149 -57 227 -52 125 7 172 28 245 108 68 76 103 149
110 233 6 79 38 135 105 184 96 70 196 89 308 59z m-1261 -15 c36 -8 91 -25
123 -37 l59 -21 -7 -66 c-4 -36 -9 -69 -11 -73 -3 -4 -25 3 -51 14 -66 29
-192 36 -269 14 -77 -23 -122 -54 -179 -127 -57 -73 -83 -136 -88 -217 -4 -65
-20 -93 -88 -160 -86 -84 -216 -110 -314 -62 -71 34 -161 129 -198 209 -47
101 -48 220 -1 349 17 46 28 47 30 4 11 -259 61 -374 184 -424 95 -39 239 22
290 121 23 46 30 84 33 191 4 96 22 143 81 203 64 66 144 95 261 96 44 0 109
-6 145 -14z m1252 -201 c68 -48 81 -91 82 -284 1 -164 2 -169 25 -194 14 -14
30 -26 37 -26 17 0 53 -89 60 -154 6 -50 4 -59 -20 -90 -15 -20 -42 -47 -61
-62 -32 -24 -37 -25 -58 -11 -30 20 -74 85 -81 123 -5 22 -2 37 12 54 18 22
21 23 51 10 18 -7 39 -26 47 -41 16 -32 35 -37 53 -15 17 20 -1 59 -41 89 -68
52 -144 36 -172 -34 -27 -67 -8 -124 73 -213 46 -51 49 -57 45 -101 -12 -161
-157 -356 -294 -395 -40 -11 -60 5 -60 48 1 38 10 58 97 214 28 51 59 117 68
146 23 70 16 170 -14 231 -28 54 -98 130 -165 178 -28 20 -53 38 -55 40 -2 1
8 20 22 40 14 21 31 49 37 63 l11 26 40 -38 c42 -40 88 -54 147 -44 81 13 127
77 127 177 0 56 -4 71 -28 102 -34 45 -56 57 -103 59 -92 3 -125 -139 -36
-157 30 -5 40 30 16 57 -18 19 -18 20 0 33 39 29 96 -28 96 -95 0 -43 -24 -96
-50 -110 -68 -36 -149 7 -175 92 -49 165 37 307 184 308 32 0 56 -7 83 -26z
m-1211 -19 c19 -4 53 -17 76 -28 43 -21 43 -22 44 -76 1 -31 3 -65 4 -76 2
-11 6 -45 9 -75 4 -30 9 -62 11 -70 6 -21 14 -101 20 -190 2 -41 7 -115 11
-165 4 -49 7 -115 8 -145 l1 -55 -77 1 c-53 1 -85 7 -102 18 -50 32 -47 127
11 331 44 160 48 233 14 288 -75 121 -228 114 -283 -13 -17 -37 -18 -121 -3
-151 15 -28 53 -49 91 -49 36 0 94 59 94 96 0 34 -36 74 -67 74 -28 0 -32 -36
-5 -56 13 -10 15 -17 6 -31 -26 -42 -74 -21 -74 33 0 74 58 137 115 126 34 -6
84 -59 90 -96 7 -34 -8 -111 -51 -261 -38 -135 -40 -254 -6 -303 38 -53 87
-72 176 -68 51 3 76 0 77 -8 9 -73 -4 -193 -36 -344 -8 -40 -15 -85 -15 -99 0
-25 0 -25 -64 -18 -116 12 -187 -28 -202 -113 -4 -20 -11 -43 -17 -49 -10 -14
-65 -17 -84 -5 -39 25 -71 230 -50 314 l7 28 48 -34 c122 -88 257 -84 328 9
70 92 21 224 -90 242 -91 15 -163 -108 -100 -171 34 -35 82 -2 49 34 -19 21
-19 39 2 62 22 25 46 23 82 -8 54 -45 38 -124 -31 -160 -63 -33 -151 -13 -227
51 l-31 27 44 61 c57 81 70 124 62 201 -18 179 -160 289 -352 273 -173 -13
-265 -133 -212 -275 16 -43 24 -52 44 -52 28 0 31 20 10 71 -27 67 -3 134 61
172 17 10 60 21 96 25 170 21 297 -83 297 -242 0 -53 -14 -84 -76 -172 -64
-90 -76 -126 -76 -219 1 -44 5 -101 10 -127 10 -53 8 -55 -43 -34 -22 9 -46
32 -63 60 -28 44 -29 51 -31 178 l-1 132 44 76 c54 93 64 136 42 178 -21 41
-80 61 -121 41 -30 -15 -51 -59 -41 -84 9 -24 45 -18 56 10 10 26 17 29 44 19
27 -10 18 -55 -25 -126 -51 -85 -57 -111 -55 -248 3 -123 2 -124 -62 -91 -48
25 -97 77 -117 124 -19 45 -17 49 35 78 62 35 44 88 -18 55 -23 -12 -30 -11
-72 15 -44 27 -73 68 -95 134 -33 99 9 242 96 322 13 12 53 31 88 43 76 25
162 80 192 121 11 16 24 29 28 29 4 0 13 -17 20 -37 19 -51 97 -125 149 -142
38 -13 45 -13 59 1 20 21 11 33 -40 56 -92 41 -142 131 -140 252 1 36 9 83 18
105 23 55 82 130 125 160 64 44 168 60 261 40z m-901 -569 c30 -14 61 -26 68
-26 17 0 16 -5 -22 -57 -46 -65 -68 -135 -68 -217 l-1 -69 -23 38 c-35 58 -65
187 -70 293 -2 52 -1 99 2 104 4 5 18 -2 33 -16 14 -13 51 -36 81 -50z m1748
25 c72 -48 146 -127 167 -177 21 -50 21 -136 0 -194 -9 -25 -47 -101 -85 -171
-80 -143 -93 -195 -64 -250 25 -49 25 -123 -2 -150 -27 -27 -80 -38 -119 -25
-34 11 -79 55 -102 100 -44 85 -35 137 35 193 114 90 155 168 161 303 7 171
-135 296 -328 289 -93 -3 -171 -32 -228 -83 -22 -19 -23 -19 -24 0 0 10 -2 28
-4 39 -7 35 -9 125 -3 131 3 3 30 -2 60 -11 164 -49 366 -37 448 25 14 11 26
20 28 20 2 0 29 -17 60 -39z m-233 -152 c62 -17 112 -56 139 -111 52 -105 15
-258 -82 -335 -95 -75 -120 -113 -117 -178 3 -58 22 -110 60 -160 19 -24 35
-50 36 -57 5 -24 -11 -55 -35 -66 -33 -15 -92 16 -146 75 -60 65 -83 122 -78
195 5 66 -7 86 -38 64 -16 -12 -19 -27 -19 -88 0 -87 26 -146 92 -214 l42 -44
-32 -22 c-46 -33 -147 -38 -175 -10 -51 51 -61 219 -22 377 5 22 13 63 16 90
4 28 8 51 9 53 2 2 24 -4 49 -12 192 -65 389 88 322 249 -45 106 -143 127
-239 51 -30 -23 -38 -79 -16 -115 19 -31 65 -61 95 -61 21 0 54 28 54 46 0 19
-34 36 -47 23 -13 -13 -48 3 -56 25 -14 37 64 83 109 64 28 -13 54 -59 54 -96
0 -42 -38 -93 -90 -120 -37 -19 -56 -23 -105 -19 -34 2 -75 12 -93 21 l-32 17
-1 87 c-1 48 -2 101 -3 117 -3 48 12 71 72 114 67 47 187 64 277 40z m-484
-779 c3 0 5 -10 5 -22 1 -34 12 -92 24 -122 13 -36 14 -33 -19 -41 -78 -17
-109 -14 -151 14 -60 40 -71 61 -59 105 6 21 19 46 31 58 18 18 29 19 92 14
39 -3 73 -6 77 -6z"/>
</g>
</svg>
